<svg xmlns="http://www.w3.org/2000/svg" xmlns:xlink="http://www.w3.org/1999/xlink" version="1.1" width="256" height="256" viewBox="0 0 256 256" xml:space="preserve">
<desc>Created with Fabric.js 1.7.22</desc>
<defs>
</defs>
<g transform="translate(128 128) scale(0.72 0.72)" style="">
	<g style="stroke: none; stroke-width: 0; stroke-dasharray: none; stroke-linecap: butt; stroke-linejoin: miter; stroke-miterlimit: 10; fill: none; fill-rule: nonzero; opacity: 1;" transform="translate(-175.05 -175.05) scale(3.89 3.89)" >
	<circle cx="42.675" cy="45.004999999999995" r="41.675" style="stroke: none; stroke-width: 1; stroke-dasharray: none; stroke-linecap: butt; stroke-linejoin: miter; stroke-miterlimit: 10; fill: rgb(232,206,96); fill-rule: nonzero; opacity: 1;" transform="  matrix(1 0 0 1 0 0) "/>
	<path d="M 36.864 59.702 h -13.49 c -0.374 0 -0.717 -0.209 -0.889 -0.542 c -0.171 -0.332 -0.143 -0.732 0.074 -1.038 l 12.305 -17.297 c 1.173 -1.65 1.34 -3.729 0.446 -5.562 c -0.861 -1.766 -2.529 -2.872 -4.462 -2.959 c -0.094 -0.004 -0.189 -0.006 -0.284 -0.006 c -3.413 0 -6.189 2.777 -6.189 6.19 c 0 0.552 -0.448 1 -1 1 s -1 -0.448 -1 -1 c 0 -4.516 3.674 -8.19 8.189 -8.19 c 0.125 0 0.25 0.003 0.374 0.008 c 2.676 0.121 4.983 1.646 6.17 4.081 c 1.202 2.464 0.966 5.375 -0.614 7.598 L 25.312 57.702 h 11.552 c 0.552 0 1 0.447 1 1 S 37.416 59.702 36.864 59.702 z" style="stroke: none; stroke-width: 1; stroke-dasharray: none; stroke-linecap: butt; stroke-linejoin: miter; stroke-miterlimit: 10; fill: rgb(0,0,0); fill-rule: nonzero; opacity: 1;" transform=" matrix(1 0 0 1 0 0) " stroke-linecap="round" />
	<path d="M 56.445 59.702 c -0.553 0 -1 -0.447 -1 -1 v -4.093 H 40.439 c -0.375 0 -0.718 -0.21 -0.89 -0.543 c -0.171 -0.334 -0.142 -0.735 0.077 -1.04 l 16.006 -22.312 c 0.254 -0.353 0.706 -0.5 1.119 -0.369 c 0.413 0.133 0.693 0.518 0.693 0.952 v 21.312 h 4.124 c 0.553 0 1 0.447 1 1 s -0.447 1 -1 1 h -4.124 v 4.093 C 57.445 59.255 56.998 59.702 56.445 59.702 z M 42.387 52.609 h 13.058 V 34.407 L 42.387 52.609 z" style="stroke: none; stroke-width: 1; stroke-dasharray: none; stroke-linecap: butt; stroke-linejoin: miter; stroke-miterlimit: 10; fill: rgb(0,0,0); fill-rule: nonzero; opacity: 1;" transform=" matrix(1 0 0 1 0 0) " stroke-linecap="round" />
	<path d="M 42.675 87.675 C 19.144 87.675 0 68.531 0 45 S 19.144 2.325 42.675 2.325 c 23.531 0 42.675 19.144 42.675 42.675 c 0 0.552 -0.447 1 -1 1 s -1 -0.448 -1 -1 c 0 -22.428 -18.247 -40.675 -40.675 -40.675 S 2 22.572 2 45 c 0 22.428 18.247 40.675 40.675 40.675 c 14.4 0 27.865 -7.731 35.14 -20.178 c 0.278 -0.477 0.889 -0.637 1.368 -0.358 c 0.477 0.278 0.637 0.892 0.358 1.368 C 71.91 79.563 57.783 87.675 42.675 87.675 z" style="stroke: none; stroke-width: 1; stroke-dasharray: none; stroke-linecap: butt; stroke-linejoin: miter; stroke-miterlimit: 10; fill: rgb(0,0,0); fill-rule: nonzero; opacity: 1;" transform=" matrix(1 0 0 1 0 0) " stroke-linecap="round" />
	<path d="M 84.351 46 c -0.299 0 -0.583 -0.134 -0.772 -0.365 l -4.65 -5.662 c -0.351 -0.427 -0.289 -1.057 0.138 -1.408 c 0.429 -0.351 1.058 -0.288 1.407 0.138 l 3.878 4.721 l 3.877 -4.721 c 0.349 -0.426 0.979 -0.489 1.407 -0.138 c 0.427 0.351 0.488 0.981 0.138 1.408 l -4.649 5.662 C 84.934 45.866 84.65 46 84.351 46 z" style="stroke: none; stroke-width: 1; stroke-dasharray: none; stroke-linecap: butt; stroke-linejoin: miter; stroke-miterlimit: 10; fill: rgb(0,0,0); fill-rule: nonzero; opacity: 1;" transform=" matrix(1 0 0 1 0 0) " stroke-linecap="round" />
</g>
</g>
</svg>