<svg xmlns="http://www.w3.org/2000/svg" xmlns:xlink="http://www.w3.org/1999/xlink" version="1.1" width="256" height="256" viewBox="0 0 256 256" xml:space="preserve">
<desc>Created with Fabric.js 1.7.22</desc>
<defs>
</defs>
<g transform="translate(128 128) scale(0.72 0.72)" style="">
	<g style="stroke: none; stroke-width: 0; stroke-dasharray: none; stroke-linecap: butt; stroke-linejoin: miter; stroke-miterlimit: 10; fill: none; fill-rule: nonzero; opacity: 1;" transform="translate(-175.05 -175.05) scale(3.89 3.89)" >
	<path d="M 87.13 76.694 H 2.87 c -1.585 0 -2.87 -1.285 -2.87 -2.87 V 16.176 c 0 -1.585 1.285 -2.87 2.87 -2.87 h 84.26 c 1.585 0 2.87 1.285 2.87 2.87 v 57.649 C 90 75.409 88.715 76.694 87.13 76.694 z" style="stroke: none; stroke-width: 1; stroke-dasharray: none; stroke-linecap: butt; stroke-linejoin: miter; stroke-miterlimit: 10; fill: rgb(255,255,255); fill-rule: nonzero; opacity: 1;" transform=" matrix(1 0 0 1 0 0) " stroke-linecap="round" />
	<path d="M 82.104 70.588 H 7.896 c -0.989 0 -1.79 -0.801 -1.79 -1.79 V 21.202 c 0 -0.989 0.801 -1.79 1.79 -1.79 h 74.207 c 0.989 0 1.79 0.801 1.79 1.79 v 47.596 C 83.894 69.787 83.092 70.588 82.104 70.588 z" style="stroke: none; stroke-width: 1; stroke-dasharray: none; stroke-linecap: butt; stroke-linejoin: miter; stroke-miterlimit: 10; fill: #fff; fill-rule: nonzero; opacity: 1;" transform=" matrix(1 0 0 1 0 0) " stroke-linecap="round" />
	<path d="M 61.791 27.76 h -5.349 c -0.417 0 -0.755 0.338 -0.755 0.755 v 26.718 c 0 0.417 0.338 0.755 0.755 0.755 h 20.07 c 0.417 0 0.755 -0.338 0.755 -0.755 V 28.515 c 0 -0.417 -0.338 -0.755 -0.755 -0.755 h -5.349" style="stroke: none; stroke-width: 1; stroke-dasharray: none; stroke-linecap: butt; stroke-linejoin: miter; stroke-miterlimit: 10; fill: rgb(249,249,249); fill-rule: nonzero; opacity: 1;" transform=" matrix(1 0 0 1 0 0) " stroke-linecap="round" />
	<path d="M 60.718 34.641 h -0.373 c -0.553 0 -1 -0.448 -1 -1 s 0.447 -1 1 -1 h 0.373 c 0.553 0 1 0.448 1 1 S 61.271 34.641 60.718 34.641 z" style="stroke: none; stroke-width: 1; stroke-dasharray: none; stroke-linecap: butt; stroke-linejoin: miter; stroke-miterlimit: 10; fill: #fff; fill-rule: nonzero; opacity: 1;" transform=" matrix(1 0 0 1 0 0) " stroke-linecap="round" />
	<path d="M 60.718 40.129 h -0.373 c -0.553 0 -1 -0.448 -1 -1 s 0.447 -1 1 -1 h 0.373 c 0.553 0 1 0.448 1 1 S 61.271 40.129 60.718 40.129 z" style="stroke: none; stroke-width: 1; stroke-dasharray: none; stroke-linecap: butt; stroke-linejoin: miter; stroke-miterlimit: 10; fill: #fff; fill-rule: nonzero; opacity: 1;" transform=" matrix(1 0 0 1 0 0) " stroke-linecap="round" />
	<path d="M 60.718 45.618 h -0.373 c -0.553 0 -1 -0.448 -1 -1 s 0.447 -1 1 -1 h 0.373 c 0.553 0 1 0.448 1 1 S 61.271 45.618 60.718 45.618 z" style="stroke: none; stroke-width: 1; stroke-dasharray: none; stroke-linecap: butt; stroke-linejoin: miter; stroke-miterlimit: 10; fill: #fff; fill-rule: nonzero; opacity: 1;" transform=" matrix(1 0 0 1 0 0) " stroke-linecap="round" />
	<path d="M 60.718 51.106 h -0.373 c -0.553 0 -1 -0.447 -1 -1 s 0.447 -1 1 -1 h 0.373 c 0.553 0 1 0.447 1 1 S 61.271 51.106 60.718 51.106 z" style="stroke: none; stroke-width: 1; stroke-dasharray: none; stroke-linecap: butt; stroke-linejoin: miter; stroke-miterlimit: 10; fill: #fff; fill-rule: nonzero; opacity: 1;" transform=" matrix(1 0 0 1 0 0) " stroke-linecap="round" />
	<path d="M 72.609 34.641 h -6.776 c -0.553 0 -1 -0.448 -1 -1 s 0.447 -1 1 -1 h 6.776 c 0.553 0 1 0.448 1 1 S 73.162 34.641 72.609 34.641 z" style="stroke: none; stroke-width: 1; stroke-dasharray: none; stroke-linecap: butt; stroke-linejoin: miter; stroke-miterlimit: 10; fill: #fff; fill-rule: nonzero; opacity: 1;" transform=" matrix(1 0 0 1 0 0) " stroke-linecap="round" />
	<path d="M 72.609 40.129 h -6.776 c -0.553 0 -1 -0.448 -1 -1 s 0.447 -1 1 -1 h 6.776 c 0.553 0 1 0.448 1 1 S 73.162 40.129 72.609 40.129 z" style="stroke: none; stroke-width: 1; stroke-dasharray: none; stroke-linecap: butt; stroke-linejoin: miter; stroke-miterlimit: 10; fill: #fff; fill-rule: nonzero; opacity: 1;" transform=" matrix(1 0 0 1 0 0) " stroke-linecap="round" />
	<path d="M 72.609 45.618 h -6.776 c -0.553 0 -1 -0.448 -1 -1 s 0.447 -1 1 -1 h 6.776 c 0.553 0 1 0.448 1 1 S 73.162 45.618 72.609 45.618 z" style="stroke: none; stroke-width: 1; stroke-dasharray: none; stroke-linecap: butt; stroke-linejoin: miter; stroke-miterlimit: 10; fill: #fff; fill-rule: nonzero; opacity: 1;" transform=" matrix(1 0 0 1 0 0) " stroke-linecap="round" />
	<path d="M 72.609 51.106 h -6.776 c -0.553 0 -1 -0.447 -1 -1 s 0.447 -1 1 -1 h 6.776 c 0.553 0 1 0.447 1 1 S 73.162 51.106 72.609 51.106 z" style="stroke: none; stroke-width: 1; stroke-dasharray: none; stroke-linecap: butt; stroke-linejoin: miter; stroke-miterlimit: 10; fill: #fff; fill-rule: nonzero; opacity: 1;" transform=" matrix(1 0 0 1 0 0) " stroke-linecap="round" />
	<path d="M 66.562 28.876 h -0.168 c -0.553 0 -1 -0.448 -1 -1 s 0.447 -1 1 -1 h 0.168 c 0.553 0 1 0.448 1 1 S 67.114 28.876 66.562 28.876 z" style="stroke: none; stroke-width: 1; stroke-dasharray: none; stroke-linecap: butt; stroke-linejoin: miter; stroke-miterlimit: 10; fill: rgb(255,255,255); fill-rule: nonzero; opacity: 1;" transform=" matrix(1 0 0 1 0 0) " stroke-linecap="round" />
	<path d="M 31.576 49.327 l -2.409 -0.938 c -0.304 -0.118 -0.647 0.032 -0.765 0.336 l -3.813 9.79 c -0.118 0.304 0.032 0.647 0.336 0.765 l 11.655 4.539 c 0.304 0.118 0.647 -0.032 0.765 -0.336 l 3.813 -9.79 c 0.118 -0.304 -0.032 -0.647 -0.336 -0.765 l -2.409 -0.938" style="stroke: none; stroke-width: 1; stroke-dasharray: none; stroke-linecap: butt; stroke-linejoin: miter; stroke-miterlimit: 10; fill: rgb(250,250,250); fill-rule: nonzero; opacity: 1;" transform=" matrix(1 0 0 1 0 0) " stroke-linecap="round" />
	<path d="M 35.022 51.767 c -0.121 0 -0.244 -0.021 -0.364 -0.068 l -0.123 -0.048 c -0.514 -0.201 -0.769 -0.781 -0.568 -1.295 c 0.201 -0.515 0.779 -0.771 1.295 -0.568 l 0.123 0.048 c 0.514 0.201 0.769 0.781 0.568 1.295 C 35.799 51.525 35.422 51.767 35.022 51.767 z" style="stroke: none; stroke-width: 1; stroke-dasharray: none; stroke-linecap: butt; stroke-linejoin: miter; stroke-miterlimit: 10; fill: rgb(255,255,255); fill-rule: nonzero; opacity: 1;" transform=" matrix(1 0 0 1 0 0) " stroke-linecap="round" />
	<path d="M 15.016 33.541 l -2.552 0.416 c -0.322 0.053 -0.541 0.356 -0.488 0.678 l 1.692 10.369 c 0.053 0.322 0.356 0.541 0.678 0.488 l 12.344 -2.015 c 0.322 -0.053 0.541 -0.356 0.488 -0.678 l -1.692 -10.369 c -0.053 -0.322 -0.356 -0.541 -0.678 -0.488 l -2.552 0.416" style="stroke: none; stroke-width: 1; stroke-dasharray: none; stroke-linecap: butt; stroke-linejoin: miter; stroke-miterlimit: 10; fill: rgb(250,250,250); fill-rule: nonzero; opacity: 1;" transform=" matrix(1 0 0 1 0 0) " stroke-linecap="round" />
	<path d="M 18.585 34.05 c -0.481 0 -0.905 -0.347 -0.986 -0.837 c -0.09 -0.545 0.279 -1.06 0.824 -1.15 l 0.13 -0.021 c 0.543 -0.088 1.06 0.279 1.15 0.824 c 0.09 0.545 -0.279 1.06 -0.824 1.15 l -0.13 0.021 C 18.694 34.046 18.639 34.05 18.585 34.05 z" style="stroke: none; stroke-width: 1; stroke-dasharray: none; stroke-linecap: butt; stroke-linejoin: miter; stroke-miterlimit: 10; fill: rgb(255,255,255); fill-rule: nonzero; opacity: 1;" transform=" matrix(1 0 0 1 0 0) " stroke-linecap="round" />
	<path d="M 38.985 28.613 l -2.515 -0.6 c -0.317 -0.076 -0.636 0.12 -0.712 0.438 l -2.437 10.22 c -0.076 0.317 0.12 0.636 0.438 0.712 l 12.166 2.902 c 0.317 0.076 0.636 -0.12 0.712 -0.438 l 2.437 -10.22 c 0.076 -0.317 -0.12 -0.636 -0.438 -0.712 l -2.515 -0.6" style="stroke: none; stroke-width: 1; stroke-dasharray: none; stroke-linecap: butt; stroke-linejoin: miter; stroke-miterlimit: 10; fill: rgb(250,250,250); fill-rule: nonzero; opacity: 1;" transform=" matrix(1 0 0 1 0 0) " stroke-linecap="round" />
	<path d="M 42.597 30.568 c -0.076 0 -0.154 -0.009 -0.231 -0.027 l -0.128 -0.03 c -0.537 -0.127 -0.87 -0.666 -0.743 -1.204 c 0.127 -0.537 0.665 -0.869 1.204 -0.743 l 0.128 0.03 c 0.537 0.127 0.87 0.666 0.743 1.204 C 43.46 30.258 43.05 30.568 42.597 30.568 z" style="stroke: none; stroke-width: 1; stroke-dasharray: none; stroke-linecap: butt; stroke-linejoin: miter; stroke-miterlimit: 10; fill: rgb(255,255,255); fill-rule: nonzero; opacity: 1;" transform=" matrix(1 0 0 1 0 0) " stroke-linecap="round" />
</g>
</g>
</svg>