<svg xmlns="http://www.w3.org/2000/svg" xmlns:xlink="http://www.w3.org/1999/xlink" version="1.1" width="256" height="256" viewBox="0 0 256 256" xml:space="preserve">
<desc>Created with Fabric.js 1.7.22</desc>
<defs>
</defs>
<g transform="translate(128 128) scale(0.72 0.72)" style="">
	<g style="stroke: none; stroke-width: 0; stroke-dasharray: none; stroke-linecap: butt; stroke-linejoin: miter; stroke-miterlimit: 10; fill: none; fill-rule: nonzero; opacity: 1;" transform="translate(-175.05 -175.05) scale(3.89 3.89)" >
	<path d="M 56.445 20.535 H 33.555 c -3.885 0 -7.064 -3.179 -7.064 -7.064 V 8.064 C 26.49 4.179 29.669 1 33.555 1 h 22.891 c 3.885 0 7.064 3.179 7.064 7.064 v 5.407 C 63.51 17.356 60.331 20.535 56.445 20.535 z" style="stroke: none; stroke-width: 1; stroke-dasharray: none; stroke-linecap: butt; stroke-linejoin: miter; stroke-miterlimit: 10; fill: rgb(255,139,71); fill-rule: nonzero; opacity: 1;" transform=" matrix(1 0 0 1 0 0) " stroke-linecap="round" />
	<path d="M 56.445 54.768 H 33.555 c -3.885 0 -7.064 -3.179 -7.064 -7.064 v -5.407 c 0 -3.885 3.179 -7.064 7.064 -7.064 h 22.891 c 3.885 0 7.064 3.179 7.064 7.064 v 5.407 C 63.51 51.589 60.331 54.768 56.445 54.768 z" style="stroke: none; stroke-width: 1; stroke-dasharray: none; stroke-linecap: butt; stroke-linejoin: miter; stroke-miterlimit: 10; fill: rgb(148,227,104); fill-rule: nonzero; opacity: 1;" transform=" matrix(1 0 0 1 0 0) " stroke-linecap="round" />
	<path d="M 56.445 89 H 33.555 c -3.885 0 -7.064 -3.179 -7.064 -7.064 v -5.407 c 0 -3.885 3.179 -7.064 7.064 -7.064 h 22.891 c 3.885 0 7.064 3.179 7.064 7.064 v 5.407 C 63.51 85.821 60.331 89 56.445 89 z" style="stroke: none; stroke-width: 1; stroke-dasharray: none; stroke-linecap: butt; stroke-linejoin: miter; stroke-miterlimit: 10; fill: rgb(243,218,73); fill-rule: nonzero; opacity: 1;" transform=" matrix(1 0 0 1 0 0) " stroke-linecap="round" />
	<path d="M 56.445 21.535 H 33.555 c -4.447 0 -8.064 -3.618 -8.064 -8.064 V 8.064 C 25.49 3.618 29.108 0 33.555 0 h 22.891 c 4.446 0 8.064 3.618 8.064 8.064 v 5.407 C 64.51 17.917 60.892 21.535 56.445 21.535 z M 33.555 2 c -3.344 0 -6.064 2.72 -6.064 6.064 v 5.407 c 0 3.344 2.721 6.064 6.064 6.064 h 22.891 c 3.344 0 6.064 -2.72 6.064 -6.064 V 8.064 C 62.51 4.72 59.789 2 56.445 2 H 33.555 z" style="stroke: none; stroke-width: 1; stroke-dasharray: none; stroke-linecap: butt; stroke-linejoin: miter; stroke-miterlimit: 10; fill: rgb(0,0,0); fill-rule: nonzero; opacity: 1;" transform=" matrix(1 0 0 1 0 0) " stroke-linecap="round" />
	<path d="M 56.445 55.768 H 33.555 c -4.447 0 -8.064 -3.618 -8.064 -8.064 v -5.407 c 0 -4.446 3.618 -8.064 8.064 -8.064 h 22.891 c 4.446 0 8.064 3.618 8.064 8.064 v 5.407 C 64.51 52.149 60.892 55.768 56.445 55.768 z M 33.555 36.232 c -3.344 0 -6.064 2.72 -6.064 6.064 v 5.407 c 0 3.344 2.721 6.064 6.064 6.064 h 22.891 c 3.344 0 6.064 -2.721 6.064 -6.064 v -5.407 c 0 -3.344 -2.721 -6.064 -6.064 -6.064 H 33.555 z" style="stroke: none; stroke-width: 1; stroke-dasharray: none; stroke-linecap: butt; stroke-linejoin: miter; stroke-miterlimit: 10; fill: rgb(0,0,0); fill-rule: nonzero; opacity: 1;" transform=" matrix(1 0 0 1 0 0) " stroke-linecap="round" />
	<path d="M 56.445 90 H 33.555 c -4.447 0 -8.064 -3.618 -8.064 -8.064 v -5.406 c 0 -4.446 3.618 -8.064 8.064 -8.064 h 22.891 c 4.446 0 8.064 3.618 8.064 8.064 v 5.406 C 64.51 86.382 60.892 90 56.445 90 z M 33.555 70.465 c -3.344 0 -6.064 2.721 -6.064 6.064 v 5.406 c 0 3.344 2.721 6.064 6.064 6.064 h 22.891 c 3.344 0 6.064 -2.721 6.064 -6.064 v -5.406 c 0 -3.344 -2.721 -6.064 -6.064 -6.064 H 33.555 z" style="stroke: none; stroke-width: 1; stroke-dasharray: none; stroke-linecap: butt; stroke-linejoin: miter; stroke-miterlimit: 10; fill: rgb(0,0,0); fill-rule: nonzero; opacity: 1;" transform=" matrix(1 0 0 1 0 0) " stroke-linecap="round" />
	<path d="M 75.4 46 h -6.29 c -0.553 0 -1 -0.448 -1 -1 s 0.447 -1 1 -1 h 6.29 c 3.344 0 6.064 -2.72 6.064 -6.064 V 17.832 c 0 -3.344 -2.721 -6.064 -6.064 -6.064 H 63.51 c -0.553 0 -1 -0.448 -1 -1 s 0.447 -1 1 -1 H 75.4 c 4.446 0 8.064 3.618 8.064 8.064 v 20.104 C 83.465 42.382 79.847 46 75.4 46 z" style="stroke: none; stroke-width: 1; stroke-dasharray: none; stroke-linecap: butt; stroke-linejoin: miter; stroke-miterlimit: 10; fill: rgb(0,0,0); fill-rule: nonzero; opacity: 1;" transform=" matrix(1 0 0 1 0 0) " stroke-linecap="round" />
	<path d="M 72.334 49.224 c -0.256 0 -0.512 -0.098 -0.707 -0.293 l -3.224 -3.224 C 68.216 45.52 68.11 45.265 68.11 45 s 0.105 -0.52 0.293 -0.707 l 3.224 -3.223 c 0.391 -0.391 1.023 -0.391 1.414 0 s 0.391 1.024 0 1.414 L 70.524 45 l 2.517 2.517 c 0.391 0.391 0.391 1.023 0 1.414 C 72.846 49.126 72.59 49.224 72.334 49.224 z" style="stroke: none; stroke-width: 1; stroke-dasharray: none; stroke-linecap: butt; stroke-linejoin: miter; stroke-miterlimit: 10; fill: rgb(0,0,0); fill-rule: nonzero; opacity: 1;" transform=" matrix(1 0 0 1 0 0) " stroke-linecap="round" />
	<path d="M 20.89 80.232 h -6.291 c -4.446 0 -8.064 -3.618 -8.064 -8.064 V 52.064 c 0 -4.446 3.618 -8.064 8.064 -8.064 H 26.49 c 0.552 0 1 0.448 1 1 s -0.448 1 -1 1 H 14.599 c -3.344 0 -6.064 2.721 -6.064 6.064 v 20.104 c 0 3.344 2.72 6.064 6.064 6.064 h 6.291 c 0.552 0 1 0.447 1 1 S 21.442 80.232 20.89 80.232 z" style="stroke: none; stroke-width: 1; stroke-dasharray: none; stroke-linecap: butt; stroke-linejoin: miter; stroke-miterlimit: 10; fill: rgb(0,0,0); fill-rule: nonzero; opacity: 1;" transform=" matrix(1 0 0 1 0 0) " stroke-linecap="round" />
	<path d="M 17.667 83.456 c -0.256 0 -0.512 -0.098 -0.707 -0.293 c -0.391 -0.391 -0.391 -1.023 0 -1.414 l 2.516 -2.517 l -2.516 -2.517 c -0.391 -0.391 -0.391 -1.023 0 -1.414 s 1.023 -0.391 1.414 0 l 3.223 3.224 c 0.391 0.391 0.391 1.023 0 1.414 l -3.223 3.224 C 18.178 83.358 17.922 83.456 17.667 83.456 z" style="stroke: none; stroke-width: 1; stroke-dasharray: none; stroke-linecap: butt; stroke-linejoin: miter; stroke-miterlimit: 10; fill: rgb(0,0,0); fill-rule: nonzero; opacity: 1;" transform=" matrix(1 0 0 1 0 0) " stroke-linecap="round" />
	<path d="M 45 22.035 c -0.552 0 -1 -0.448 -1 -1 v -0.5 c 0 -0.552 0.448 -1 1 -1 s 1 0.448 1 1 v 0.5 C 46 21.587 45.552 22.035 45 22.035 z" style="stroke: none; stroke-width: 1; stroke-dasharray: none; stroke-linecap: butt; stroke-linejoin: miter; stroke-miterlimit: 10; fill: rgb(0,0,0); fill-rule: nonzero; opacity: 1;" transform=" matrix(1 0 0 1 0 0) " stroke-linecap="round" />
	<path d="M 45 31.819 c -0.552 0 -1 -0.448 -1 -1 V 29.84 c 0 -0.552 0.448 -1 1 -1 s 1 0.448 1 1 v 0.979 C 46 31.371 45.552 31.819 45 31.819 z M 45 26.927 c -0.552 0 -1 -0.448 -1 -1 v -0.979 c 0 -0.552 0.448 -1 1 -1 s 1 0.448 1 1 v 0.979 C 46 26.479 45.552 26.927 45 26.927 z" style="stroke: none; stroke-width: 1; stroke-dasharray: none; stroke-linecap: butt; stroke-linejoin: miter; stroke-miterlimit: 10; fill: rgb(0,0,0); fill-rule: nonzero; opacity: 1;" transform=" matrix(1 0 0 1 0 0) " stroke-linecap="round" />
	<path d="M 45 36.232 c -0.552 0 -1 -0.448 -1 -1 v -0.5 c 0 -0.552 0.448 -1 1 -1 s 1 0.448 1 1 v 0.5 C 46 35.785 45.552 36.232 45 36.232 z" style="stroke: none; stroke-width: 1; stroke-dasharray: none; stroke-linecap: butt; stroke-linejoin: miter; stroke-miterlimit: 10; fill: rgb(0,0,0); fill-rule: nonzero; opacity: 1;" transform=" matrix(1 0 0 1 0 0) " stroke-linecap="round" />
	<path d="M 45 56.708 c -0.552 0 -1 -0.447 -1 -1 v -0.5 c 0 -0.553 0.448 -1 1 -1 s 1 0.447 1 1 v 0.5 C 46 56.261 45.552 56.708 45 56.708 z" style="stroke: none; stroke-width: 1; stroke-dasharray: none; stroke-linecap: butt; stroke-linejoin: miter; stroke-miterlimit: 10; fill: rgb(0,0,0); fill-rule: nonzero; opacity: 1;" transform=" matrix(1 0 0 1 0 0) " stroke-linecap="round" />
	<path d="M 45 66.177 c -0.552 0 -1 -0.447 -1 -1 v -0.947 c 0 -0.553 0.448 -1 1 -1 s 1 0.447 1 1 v 0.947 C 46 65.729 45.552 66.177 45 66.177 z M 45 61.442 c -0.552 0 -1 -0.447 -1 -1 v -0.947 c 0 -0.553 0.448 -1 1 -1 s 1 0.447 1 1 v 0.947 C 46 60.995 45.552 61.442 45 61.442 z" style="stroke: none; stroke-width: 1; stroke-dasharray: none; stroke-linecap: butt; stroke-linejoin: miter; stroke-miterlimit: 10; fill: rgb(0,0,0); fill-rule: nonzero; opacity: 1;" transform=" matrix(1 0 0 1 0 0) " stroke-linecap="round" />
	<path d="M 45 70.465 c -0.552 0 -1 -0.447 -1 -1 v -0.5 c 0 -0.553 0.448 -1 1 -1 s 1 0.447 1 1 v 0.5 C 46 70.018 45.552 70.465 45 70.465 z" style="stroke: none; stroke-width: 1; stroke-dasharray: none; stroke-linecap: butt; stroke-linejoin: miter; stroke-miterlimit: 10; fill: rgb(0,0,0); fill-rule: nonzero; opacity: 1;" transform=" matrix(1 0 0 1 0 0) " stroke-linecap="round" />
</g>
</g>
</svg>