<svg xmlns="http://www.w3.org/2000/svg" xmlns:xlink="http://www.w3.org/1999/xlink" version="1.1" width="256" height="256" viewBox="0 0 256 256" xml:space="preserve">
<desc>Created with Fabric.js 1.7.22</desc>
<defs>
</defs>
<g transform="translate(128 128) scale(0.72 0.72)" style="">
	<g style="stroke: none; stroke-width: 0; stroke-dasharray: none; stroke-linecap: butt; stroke-linejoin: miter; stroke-miterlimit: 10; fill: none; fill-rule: nonzero; opacity: 1;" transform="translate(-175.05 -175.05) scale(3.89 3.89)" >
	<path d="M 71.46 29.223 H 2.001 c -1.104 0 -2 -0.895 -2 -2 v -9.194 c 0 -3.051 2.482 -5.533 5.533 -5.533 h 62.395 c 3.051 0 5.532 2.482 5.532 5.533 v 9.194 C 73.46 28.327 72.565 29.223 71.46 29.223 z M 4.001 25.223 h 65.46 v -7.194 c 0 -0.845 -0.687 -1.533 -1.532 -1.533 H 5.534 c -0.845 0 -1.533 0.687 -1.533 1.533 V 25.223 z" style="stroke: none; stroke-width: 1; stroke-dasharray: none; stroke-linecap: butt; stroke-linejoin: miter; stroke-miterlimit: 10; fill: rgb(255,255,255); fill-rule: nonzero; opacity: 1;" transform=" matrix(1 0 0 1 0 0) " stroke-linecap="round" />
	<path d="M 67.43 82.118 h -61.4 c -3.325 0 -6.03 -2.705 -6.03 -6.03 V 27.223 c 0 -1.104 0.895 -2 2 -2 s 2 0.895 2 2 v 48.865 c 0 1.119 0.911 2.03 2.03 2.03 h 61.4 c 1.119 0 2.03 -0.911 2.03 -2.03 v -6.184 c 0 -1.104 0.895 -2 2 -2 s 2 0.895 2 2 v 6.184 C 73.46 79.413 70.755 82.118 67.43 82.118 z" style="stroke: none; stroke-width: 1; stroke-dasharray: none; stroke-linecap: butt; stroke-linejoin: miter; stroke-miterlimit: 10; fill: rgb(255,255,255); fill-rule: nonzero; opacity: 1;" transform=" matrix(1 0 0 1 0 0) " stroke-linecap="round" />
	<path d="M 57.596 21.113 c -1.104 0 -2 -0.895 -2 -2 V 9.882 c 0 -1.104 0.895 -2 2 -2 s 2 0.895 2 2 v 9.231 C 59.596 20.217 58.701 21.113 57.596 21.113 z" style="stroke: none; stroke-width: 1; stroke-dasharray: none; stroke-linecap: butt; stroke-linejoin: miter; stroke-miterlimit: 10; fill: rgb(255,255,255); fill-rule: nonzero; opacity: 1;" transform=" matrix(1 0 0 1 0 0) " stroke-linecap="round" />
	<path d="M 15.865 21.113 c -1.104 0 -2 -0.895 -2 -2 V 9.882 c 0 -1.104 0.895 -2 2 -2 s 2 0.895 2 2 v 9.231 C 17.865 20.217 16.969 21.113 15.865 21.113 z" style="stroke: none; stroke-width: 1; stroke-dasharray: none; stroke-linecap: butt; stroke-linejoin: miter; stroke-miterlimit: 10; fill: rgb(255,255,255); fill-rule: nonzero; opacity: 1;" transform=" matrix(1 0 0 1 0 0) " stroke-linecap="round" />
	<path d="M 36.731 21.113 c -1.104 0 -2 -0.895 -2 -2 V 9.882 c 0 -1.104 0.895 -2 2 -2 s 2 0.895 2 2 v 9.231 C 38.731 20.217 37.835 21.113 36.731 21.113 z" style="stroke: none; stroke-width: 1; stroke-dasharray: none; stroke-linecap: butt; stroke-linejoin: miter; stroke-miterlimit: 10; fill: rgb(255,255,255); fill-rule: nonzero; opacity: 1;" transform=" matrix(1 0 0 1 0 0) " stroke-linecap="round" />
	<path d="M 86.1 71.904 H 27.191 c -3.871 0 -7.65 -1.361 -10.641 -3.833 C 5.259 58.743 0.001 45.763 0.001 27.223 c 0 -1.104 0.895 -2 2 -2 h 69.46 c 1.104 0 2 0.895 2 2 c 0 17.266 4.804 29.272 15.118 37.782 c 1.284 1.059 1.75 2.755 1.187 4.32 C 89.203 70.892 87.765 71.904 86.1 71.904 z M 4.023 29.223 C 4.385 45.41 9.201 56.81 19.097 64.987 c 2.276 1.881 5.151 2.917 8.094 2.917 h 58.616 c -10.744 -8.978 -15.959 -21.313 -16.326 -38.681 H 4.023 z" style="stroke: none; stroke-width: 1; stroke-dasharray: none; stroke-linecap: butt; stroke-linejoin: miter; stroke-miterlimit: 10; fill: rgb(255,255,255); fill-rule: nonzero; opacity: 1;" transform=" matrix(1 0 0 1 0 0) " stroke-linecap="round" />
</g>
</g>
</svg>