<svg xmlns="http://www.w3.org/2000/svg" xmlns:xlink="http://www.w3.org/1999/xlink" version="1.1" width="256" height="256" viewBox="0 0 256 256" xml:space="preserve">
<desc>Created with Fabric.js 1.7.22</desc>
<defs>
</defs>
<g transform="translate(128 128) scale(0.72 0.72)" style="">
	<g style="stroke: none; stroke-width: 0; stroke-dasharray: none; stroke-linecap: butt; stroke-linejoin: miter; stroke-miterlimit: 10; fill: none; fill-rule: nonzero; opacity: 1;" transform="translate(-175.05 -175.05) scale(3.89 3.89)" >
	<rect x="26.77" y="71.55" rx="0" ry="0" width="3.56" height="3.56" style="stroke: none; stroke-width: 1; stroke-dasharray: none; stroke-linecap: butt; stroke-linejoin: miter; stroke-miterlimit: 10; fill: rgb(255,255,255); fill-rule: nonzero; opacity: 1;" transform=" matrix(1 0 0 1 0 0) "/>
	<rect x="26.77" y="52.33" rx="0" ry="0" width="3.56" height="3.56" style="stroke: none; stroke-width: 1; stroke-dasharray: none; stroke-linecap: butt; stroke-linejoin: miter; stroke-miterlimit: 10; fill: rgb(255,255,255); fill-rule: nonzero; opacity: 1;" transform=" matrix(1 0 0 1 0 0) "/>
	<path d="M 70.111 13.869 h -8.13 c -0.549 -4.792 -4.571 -8.543 -9.481 -8.653 C 51.346 2.109 48.364 0 45 0 s -6.346 2.109 -7.501 5.216 c -4.91 0.11 -8.932 3.861 -9.481 8.653 h -8.13 c -2.672 0 -4.846 2.174 -4.846 4.846 v 66.44 c 0 2.672 2.174 4.846 4.846 4.846 h 50.223 c 2.673 0 4.847 -2.174 4.847 -4.846 v -66.44 C 74.958 16.042 72.784 13.869 70.111 13.869 z M 23.588 33.688 c 0.893 -0.651 2.143 -0.455 2.794 0.438 l 1.245 1.708 l 2.981 -4.968 c 0.568 -0.947 1.797 -1.255 2.744 -0.686 c 0.947 0.568 1.254 1.797 0.686 2.744 l -4.534 7.557 c -0.345 0.575 -0.956 0.939 -1.625 0.969 c -0.03 0.001 -0.06 0.002 -0.089 0.002 c -0.638 0 -1.239 -0.304 -1.616 -0.822 l -3.023 -4.148 C 22.499 35.589 22.695 34.338 23.588 33.688 z M 34.323 75.797 c 0 1.822 -1.482 3.305 -3.305 3.305 h -4.948 c -1.822 0 -3.305 -1.482 -3.305 -3.305 V 70.85 c 0 -1.822 1.482 -3.305 3.305 -3.305 h 4.948 c 1.822 0 3.305 1.482 3.305 3.305 V 75.797 z M 34.323 56.578 c 0 1.822 -1.482 3.305 -3.305 3.305 h -4.948 c -1.822 0 -3.305 -1.482 -3.305 -3.305 V 51.63 c 0 -1.822 1.482 -3.305 3.305 -3.305 h 4.948 c 1.822 0 3.305 1.482 3.305 3.305 V 56.578 z M 42.599 8.485 H 47.4 c 1.104 0 2 0.896 2 2 s -0.896 2 -2 2 h -4.801 c -1.104 0 -2 -0.896 -2 -2 S 41.495 8.485 42.599 8.485 z M 52.653 79.102 H 39.872 c -1.104 0 -2 -0.896 -2 -2 s 0.896 -2 2 -2 h 12.781 c 1.104 0 2 0.896 2 2 S 53.758 79.102 52.653 79.102 z M 64.271 71.545 H 39.872 c -1.104 0 -2 -0.896 -2 -2 s 0.896 -2 2 -2 h 24.399 c 1.104 0 2 0.896 2 2 S 65.376 71.545 64.271 71.545 z M 37.872 57.883 c 0 -1.104 0.896 -2 2 -2 h 12.781 c 1.104 0 2 0.896 2 2 s -0.896 2 -2 2 H 39.872 C 38.768 59.883 37.872 58.987 37.872 57.883 z M 64.271 52.325 H 39.872 c -1.104 0 -2 -0.896 -2 -2 s 0.896 -2 2 -2 h 24.399 c 1.104 0 2 0.896 2 2 S 65.376 52.325 64.271 52.325 z M 37.872 39.452 c 0 -1.104 0.896 -2 2 -2 h 12.781 c 1.104 0 2 0.896 2 2 s -0.896 2 -2 2 H 39.872 C 38.768 41.452 37.872 40.556 37.872 39.452 z M 64.271 33.895 H 39.872 c -1.104 0 -2 -0.896 -2 -2 s 0.896 -2 2 -2 h 24.399 c 1.104 0 2 0.896 2 2 S 65.376 33.895 64.271 33.895 z" style="stroke: none; stroke-width: 1; stroke-dasharray: none; stroke-linecap: butt; stroke-linejoin: miter; stroke-miterlimit: 10; fill: rgb(255,255,255); fill-rule: nonzero; opacity: 1;" transform=" matrix(1 0 0 1 0 0) " stroke-linecap="round" />
</g>
</g>
</svg>