<svg xmlns="http://www.w3.org/2000/svg" xmlns:xlink="http://www.w3.org/1999/xlink" version="1.1" width="256" height="256" viewBox="0 0 256 256" xml:space="preserve">
<desc>Created with Fabric.js 1.7.22</desc>
<defs>
</defs>
<g transform="translate(128 128) scale(0.72 0.72)" style="">
	<g style="stroke: none; stroke-width: 0; stroke-dasharray: none; stroke-linecap: butt; stroke-linejoin: miter; stroke-miterlimit: 10; fill: none; fill-rule: nonzero; opacity: 1;" transform="translate(-175.05 -175.05) scale(3.89 3.89)" >
	<rect x="2.34" y="32.74" rx="0" ry="0" width="86.37" height="47.98" style="stroke: none; stroke-width: 1; stroke-dasharray: none; stroke-linecap: butt; stroke-linejoin: miter; stroke-miterlimit: 10; fill: rgb(228,231,231); fill-rule: nonzero; opacity: 1;" transform=" matrix(1 0 0 1 0 0) "/>
	<rect x="21.15" y="8.89" rx="0" ry="0" width="7.34" height="13.76" style="stroke: none; stroke-width: 1; stroke-dasharray: none; stroke-linecap: butt; stroke-linejoin: miter; stroke-miterlimit: 10; fill: rgb(191,57,44); fill-rule: nonzero; opacity: 1;" transform=" matrix(1 0 0 1 0 0) "/>
	<rect x="62.15" y="8.89" rx="0" ry="0" width="7.34" height="13.76" style="stroke: none; stroke-width: 1; stroke-dasharray: none; stroke-linecap: butt; stroke-linejoin: miter; stroke-miterlimit: 10; fill: rgb(191,57,44); fill-rule: nonzero; opacity: 1;" transform=" matrix(1 0 0 1 0 0) "/>
	<path d="M 71.33 14.891 v -8 H 58.67 v 8 H 31.33 v -8 H 18.67 v 8 H 0 v 0 v 20.348 v 47.871 h 90 V 35.238 V 14.891 v 0 H 71.33 z M 62.67 10.891 h 4.66 v 10.174 h -4.66 V 10.891 z M 22.67 10.891 h 4.66 v 10.174 h -4.66 V 10.891 z M 86 79.109 H 4 V 35.238 h 82 V 79.109 z" style="stroke: none; stroke-width: 1; stroke-dasharray: none; stroke-linecap: butt; stroke-linejoin: miter; stroke-miterlimit: 10; fill: rgb(226,87,76); fill-rule: nonzero; opacity: 1;" transform=" matrix(1 0 0 1 0 0) " stroke-linecap="round" />
	<path d="M 52.908 44.126 L 40.271 59.281 c -0.148 0.177 -0.403 0.166 -0.538 -0.023 l -3.179 -4.449 c -0.067 -0.094 -0.169 -0.149 -0.278 -0.149 h -8.221 c -0.296 0 -0.462 0.379 -0.278 0.636 L 39.315 71.44 c 0.135 0.189 0.39 0.2 0.538 0.023 l 22.351 -26.804 c 0.21 -0.251 0.049 -0.659 -0.26 -0.659 h -8.776 C 53.07 44 52.975 44.046 52.908 44.126 z" style="stroke: none; stroke-width: 1; stroke-dasharray: none; stroke-linecap: butt; stroke-linejoin: miter; stroke-miterlimit: 10; fill: rgb(55,79,91); fill-rule: nonzero; opacity: 1;" transform=" matrix(1 0 0 1 0 0) " stroke-linecap="round" />
</g>
</g>
</svg>